<svg width="512" height="512" viewBox="0 0 512 512" fill="none" xmlns="http://www.w3.org/2000/svg">
<path d="M365.825 326.112C368.813 326.112 371.112 327.491 372.721 330.249C374.56 333.008 375.479 336.8 375.479 341.627C375.479 350.592 373.295 357.718 368.928 363.004C346.172 390.817 321.922 404.724 296.177 404.724C273.881 404.724 256.067 396.104 242.735 378.865C229.403 361.625 222.737 336.915 222.737 304.735C222.737 296.92 223.082 289.105 223.772 281.289C208.601 284.048 192.051 286.116 174.122 287.496C162.169 288.415 154.009 288.99 149.642 289.22C145.045 312.665 138.609 341.398 130.334 375.417C125.507 395.415 116.312 405.414 102.751 405.414C88.0395 405.414 80.684 398.748 80.684 385.416C80.684 382.428 81.2587 378.29 82.408 373.003C90.2232 341.513 96.4294 314.849 101.027 293.012L84.4767 293.702C76.8914 293.702 71.3747 292.438 67.9268 289.909C64.4789 287.151 62.755 282.783 62.755 276.807C62.755 269.222 64.9387 263.705 69.306 260.257C73.6733 256.579 80.9139 254.511 91.0277 254.051L109.302 253.361C115.278 220.951 118.266 196.241 118.266 179.232C118.266 168.428 116.657 161.073 113.439 157.165C110.221 153.258 105.969 151.304 100.682 151.304C84.5917 151.304 66.4327 164.751 46.2051 191.644C43.2169 195.552 39.884 197.506 36.2062 197.506C32.9882 197.506 30.2299 196.011 27.9313 193.023C25.6327 190.035 24.4834 186.242 24.4834 181.645C24.4834 174.52 27.3566 166.934 33.1031 158.889C43.2169 144.868 55.9741 133.375 71.3747 124.41C86.7753 115.216 102.406 110.619 118.266 110.619C133.207 110.619 144.7 115.79 152.745 126.134C161.02 136.248 165.157 152.108 165.157 173.715C165.157 192.793 162.399 218.653 156.882 251.293L190.672 249.569C205.153 248.879 217.565 247.73 227.909 246.121C232.047 220.836 238.368 197.161 246.873 175.094C255.377 153.028 265.951 135.099 278.593 121.307C291.235 107.516 305.372 100.62 321.002 100.62C332.495 100.62 341.575 105.217 348.241 114.411C354.907 123.376 358.239 135.214 358.239 149.925C358.239 206.93 329.162 246.466 271.008 268.532C270.318 277.727 269.973 287.266 269.973 297.15C269.973 321.285 272.962 338.409 278.938 348.523C284.914 358.637 293.304 363.694 304.108 363.694C313.532 363.694 322.152 361.28 329.967 356.453C337.782 351.397 346.632 342.892 356.516 330.939C359.274 327.721 362.377 326.112 365.825 326.112ZM319.278 130.616C314.221 130.616 308.82 135.214 303.073 144.408C297.557 153.602 292.27 166.13 287.213 181.99C282.156 197.85 278.133 215.205 275.145 234.053C293.534 226.468 307.096 215.664 315.83 201.643C324.565 187.622 328.932 169.578 328.932 147.511C328.932 142.224 328.013 138.087 326.174 135.099C324.335 132.11 322.037 130.616 319.278 130.616Z" fill="white"/>
<path d="M433.312 404.724C423.198 404.724 415.498 401.966 410.211 396.449C405.154 390.932 402.626 383.692 402.626 374.727C402.626 364.384 405.499 356.109 411.245 349.902C417.222 343.696 425.497 340.593 436.07 340.593C446.184 340.593 453.769 343.122 458.826 348.178C464.113 353.006 466.757 360.246 466.757 369.9C466.757 380.474 463.768 388.979 457.792 395.415C451.816 401.621 443.656 404.724 433.312 404.724Z" fill="#C5F139"/>
</svg>
